<svg id="visual" viewBox="0 0 900 600" xmlns="http://www.w3.org/2000/svg" xmlns:xlink="http://www.w3.org/1999/xlink" version="1.1"><path d="M0 438L30 438.2C60 438.3 120 438.7 180 446.3C240 454 300 469 360 474.8C420 480.7 480 477.3 540 472.2C600 467 660 460 720 449.2C780 438.3 840 423.7 870 416.3L900 409L900 601L870 601C840 601 780 601 720 601C660 601 600 601 540 601C480 601 420 601 360 601C300 601 240 601 180 601C120 601 60 601 30 601L0 601Z" fill="#FFFFFF" stroke-linecap="round" stroke-linejoin="miter"></path></svg>